<svg 
 xmlns="http://www.w3.org/2000/svg"
 xmlns:xlink="http://www.w3.org/1999/xlink"
 width="43px" height="44px">
<path fill-rule="evenodd"  fill="rgb(254, 254, 254)"
 d="M42.669,41.615 C42.669,42.385 42.697,42.862 42.781,43.436 L40.876,43.436 L40.876,42.694 C40.876,42.484 40.876,42.442 40.890,42.091 C40.119,43.184 39.349,43.590 38.018,43.590 C37.304,43.590 36.800,43.464 36.337,43.184 C35.567,42.694 35.203,41.909 35.203,40.761 L35.203,37.217 C35.203,36.446 35.161,35.914 35.091,35.396 L37.122,35.396 C37.038,36.026 37.024,36.502 37.024,37.217 L37.024,40.326 C37.024,41.139 37.234,41.657 37.668,41.923 C37.878,42.035 38.172,42.119 38.438,42.119 C39.447,42.119 40.245,41.433 40.876,40.046 L40.876,37.217 C40.876,36.530 40.834,35.998 40.764,35.396 L42.781,35.396 C42.683,35.998 42.669,36.432 42.669,37.217 L42.669,41.615 ZM30.754,41.615 L30.754,38.505 C30.754,37.917 30.684,37.539 30.516,37.273 C30.292,36.909 29.871,36.698 29.339,36.698 C28.331,36.698 27.504,37.399 26.888,38.786 L26.888,41.615 C26.888,42.301 26.916,42.834 27.000,43.436 L24.983,43.436 C25.067,42.834 25.095,42.399 25.095,41.615 L25.095,37.217 C25.095,36.446 25.067,35.970 24.983,35.396 L26.888,35.396 L26.888,36.138 C26.888,36.348 26.888,36.390 26.860,36.740 C27.714,35.648 28.457,35.256 29.717,35.256 C30.796,35.256 31.594,35.606 32.099,36.292 C32.435,36.754 32.575,37.315 32.575,38.253 L32.575,41.615 C32.575,42.385 32.603,42.918 32.687,43.436 L30.656,43.436 C30.726,42.806 30.754,42.329 30.754,41.615 ZM17.326,41.447 C17.732,41.951 18.363,42.231 19.077,42.231 C19.763,42.231 20.352,41.979 20.758,41.531 C20.926,41.335 21.024,41.181 21.164,40.803 L22.817,41.335 C22.495,42.007 22.313,42.273 21.962,42.624 C21.234,43.338 20.254,43.702 19.077,43.702 C16.598,43.702 15.029,42.049 15.029,39.430 C15.029,36.838 16.584,35.144 18.979,35.144 C20.618,35.144 21.906,35.956 22.467,37.357 C22.733,38.029 22.831,38.533 22.873,39.486 C22.873,39.514 22.873,39.556 22.901,39.878 L16.808,39.878 C16.878,40.649 17.004,41.041 17.326,41.447 ZM21.080,38.491 C20.982,37.875 20.814,37.497 20.464,37.147 C20.085,36.768 19.609,36.586 18.951,36.586 C17.858,36.586 17.060,37.315 16.850,38.491 L21.080,38.491 ZM11.017,41.615 L11.017,38.477 C11.017,37.245 10.582,36.684 9.644,36.684 C9.182,36.684 8.831,36.810 8.495,37.105 C8.005,37.525 7.781,37.973 7.613,38.842 L7.613,41.615 C7.613,42.385 7.641,42.862 7.711,43.436 L5.694,43.436 C5.778,42.848 5.806,42.413 5.806,41.615 L5.806,38.477 C5.806,37.301 5.358,36.712 4.447,36.712 C3.859,36.712 3.383,36.951 3.004,37.441 C2.696,37.847 2.556,38.169 2.402,38.842 L2.402,41.615 C2.402,42.371 2.430,42.792 2.500,43.436 L0.525,43.436 C0.595,42.834 0.623,42.371 0.623,41.615 L0.623,37.217 C0.623,36.334 0.595,35.928 0.525,35.396 L2.402,35.396 L2.402,36.110 C2.402,36.194 2.402,36.404 2.388,36.628 C2.794,35.774 3.831,35.228 4.993,35.228 C5.750,35.228 6.366,35.438 6.800,35.858 C7.053,36.082 7.165,36.264 7.333,36.698 C7.809,36.068 8.075,35.816 8.509,35.592 C8.972,35.340 9.448,35.228 10.078,35.228 C10.975,35.228 11.703,35.508 12.179,36.026 C12.642,36.530 12.838,37.161 12.838,38.155 L12.838,41.615 C12.838,42.399 12.866,42.862 12.950,43.436 L10.905,43.436 C10.989,42.862 11.017,42.442 11.017,41.615 Z"/>
<path fill-rule="evenodd"  fill="rgb(250, 250, 250)"
 d="M9.000,-0.000 L34.000,-0.000 L34.000,3.047 L9.000,3.047 L9.000,-0.000 Z"/>
<path fill-rule="evenodd"  fill="rgb(250, 250, 250)"
 d="M9.000,9.102 L34.000,9.102 L34.000,12.148 L9.000,12.148 L9.000,9.102 Z"/>
<path fill-rule="evenodd"  fill="rgb(250, 250, 250)"
 d="M9.000,17.953 L34.000,17.953 L34.000,21.000 L9.000,21.000 L9.000,17.953 Z"/>
</svg>